<?xml version="1.0" encoding="utf-8"?>
<!-- Generator: Adobe Illustrator 22.1.0, SVG Export Plug-In . SVG Version: 6.00 Build 0)  -->
<svg version="1.1" id="Layer_1" xmlns="http://www.w3.org/2000/svg" xmlns:xlink="http://www.w3.org/1999/xlink" x="0px" y="0px"
	 viewBox="0 0 394.8 98" style="enable-background:new 0 0 394.8 98;" xml:space="preserve">
<style type="text/css">
	.st0{fill:#243746;}
	.st1{fill:#FFFFFF;}
	.st2{fill:#A0CD5F;}
</style>
<g>
	<rect x="0" class="st0" width="394.8" height="63.7"/>
	<g>
		<path class="st1" d="M18,13.1h8.2v37.1H18V13.1z"/>
		<path class="st1" d="M35.4,13.1h8.2v14.7h15.1V13.1h8.2v37.1h-8.2V35.3H43.6v14.9h-8.2C35.4,50.2,35.4,13.1,35.4,13.1z"/>
		<path class="st1" d="M73,31.7L73,31.7c0-10.6,8.2-19.3,19.4-19.3c6.7,0,10.7,1.8,14.6,5.1l-5.1,6.2c-2.9-2.4-5.4-3.8-9.7-3.8
			c-5.9,0-10.7,5.2-10.7,11.6v0.1c0,6.8,4.7,11.8,11.2,11.8c3,0,5.6-0.7,7.7-2.2v-5.3h-8.2v-7h16.1v16c-3.8,3.2-9.1,5.9-15.8,5.9
			C81,50.8,73,42.7,73,31.7z"/>
		<path class="st1" d="M130.5,31.7L130.5,31.7c0-10.6,8.3-19.3,19.8-19.3c11.4,0,19.7,8.5,19.7,19.1v0.1c0,10.5-8.3,19.2-19.8,19.2
			C138.7,50.8,130.5,42.3,130.5,31.7z M161.4,31.7L161.4,31.7c0-6.5-4.7-11.8-11.2-11.8s-11.1,5.2-11.1,11.6v0.1
			c0,6.4,4.7,11.7,11.2,11.7S161.4,38.1,161.4,31.7z"/>
		<path class="st1" d="M172.2,13.1h8.7l7.7,25.1l8.3-25.2h7l8.3,25.2l7.7-25.1h8.5l-12.7,37.4h-7.1l-8.4-24.3l-8.4,24.3h-7.1
			L172.2,13.1z"/>
		<path class="st1" d="M234.5,13.1h7.5l17.4,22.8V13.1h8.1v37.1h-7l-18-23.6v23.6h-8V13.1z"/>
		<path class="st1" d="M276.4,13.1h28v7.3h-19.9v7.5H302v7.3h-17.5v7.7h20.1v7.3h-28.2V13.1z"/>
		<path class="st1" d="M311.9,13.1h17c4.7,0,8.4,1.3,10.8,3.8c2.1,2.1,3.2,5,3.2,8.5v0.1c0,6-3.2,9.8-7.9,11.5l9.1,13.2h-9.5
			l-7.9-11.9h-0.1h-6.3v11.9h-8.2V13.1H311.9z M328.3,31.1c4,0,6.3-2.1,6.3-5.2v-0.1c0-3.5-2.4-5.3-6.4-5.3h-8.1v10.7L328.3,31.1
			L328.3,31.1z"/>
		<path class="st1" d="M347.6,44.8l4.8-5.8c3.3,2.8,6.8,4.5,11.1,4.5c3.3,0,5.4-1.3,5.4-3.5v-0.1c0-2.1-1.3-3.1-7.5-4.7
			c-7.5-1.9-12.3-4-12.3-11.3v-0.1c0-6.7,5.4-11.2,13-11.2c5.4,0,10,1.7,13.8,4.7l-4.2,6.1c-3.3-2.3-6.5-3.7-9.6-3.7
			s-4.8,1.4-4.8,3.2V23c0,2.4,1.6,3.2,8,4.9c7.5,2,11.8,4.7,11.8,11.1v0.1c0,7.4-5.6,11.5-13.6,11.5
			C357.8,50.7,352.1,48.7,347.6,44.8z"/>
	</g>
	<rect y="63.4" class="st2" width="394.8" height="34.6"/>
	<g>
		<path class="st1" d="M25.8,71.4h3.7l7.8,18.3h-4.2l-1.7-4.1h-7.7L22,89.7h-4.1L25.8,71.4z M30,82.2l-2.4-5.9l-2.4,5.9H30z"/>
		<path class="st1" d="M55.8,87.1l2.4-2.8c1.6,1.4,3.4,2.2,5.4,2.2c1.6,0,2.6-0.6,2.6-1.7v-0.1c0-1-0.6-1.5-3.7-2.3
			c-3.7-0.9-6-2-6-5.6v-0.1c0-3.3,2.7-5.5,6.4-5.5c2.7,0,4.9,0.8,6.8,2.3l-2.1,3c-1.6-1.1-3.2-1.8-4.7-1.8s-2.4,0.8-2.4,1.7v0.1
			c0,1.2,0.8,1.6,3.9,2.4c3.7,1,5.8,2.3,5.8,5.5v0.1c0,3.6-2.8,5.6-6.7,5.6C60.7,90,58,89.1,55.8,87.1z"/>
		<path class="st1" d="M89.3,87.1l2.4-2.8c1.6,1.4,3.4,2.2,5.4,2.2c1.6,0,2.6-0.6,2.6-1.7v-0.1c0-1-0.6-1.5-3.7-2.3
			c-3.7-0.9-6-2-6-5.6v-0.1c0-3.3,2.7-5.5,6.4-5.5c2.7,0,4.9,0.8,6.8,2.3l-2.1,3c-1.6-1.1-3.2-1.8-4.7-1.8s-2.3,0.7-2.3,1.6v0.1
			c0,1.2,0.8,1.6,3.9,2.4c3.7,1,5.8,2.3,5.8,5.5v0.1c0,3.6-2.8,5.6-6.7,5.6C94.3,90,91.5,89.1,89.3,87.1z"/>
		<path class="st1" d="M123.6,80.7L123.6,80.7c0-5.2,4.1-9.5,9.7-9.5s9.6,4.2,9.6,9.4v0.1c0,5.2-4.1,9.4-9.7,9.4
			S123.6,85.9,123.6,80.7z M138.8,80.7L138.8,80.7c0-3.2-2.3-5.8-5.5-5.8s-5.5,2.5-5.5,5.7v0.1c0,3.1,2.3,5.7,5.5,5.7
			C136.5,86.4,138.8,83.8,138.8,80.7z"/>
		<path class="st1" d="M162.9,80.7L162.9,80.7c0-5.2,3.9-9.5,9.5-9.5c3.4,0,5.5,1.1,7.2,2.8l-2.5,2.9c-1.4-1.3-2.8-2.1-4.7-2.1
			c-3.1,0-5.3,2.5-5.3,5.7v0.1c0,3.1,2.2,5.7,5.3,5.7c2.1,0,3.4-0.8,4.8-2.1l2.5,2.6c-1.9,2-4,3.3-7.5,3.3
			C166.9,90.1,162.9,85.9,162.9,80.7z"/>
		<path class="st1" d="M200.2,71.6h4v18.2h-4V71.6z"/>
		<path class="st1" d="M232.2,71.4h3.7l7.8,18.3h-4.2l-1.7-4.1h-7.7l-1.7,4.1h-4.1L232.2,71.4z M236.4,82.2l-2.4-5.9l-2.4,5.9H236.4
			z"/>
		<path class="st1" d="M265.6,75.3h-5.5v-3.7h15.1v3.7h-5.5v14.5h-4V75.3H265.6z"/>
		<path class="st1" d="M295.6,71.6h4v18.2h-4V71.6z"/>
		<path class="st1" d="M320.5,80.7L320.5,80.7c0-5.2,4.1-9.5,9.7-9.5s9.6,4.2,9.6,9.4v0.1c0,5.2-4.1,9.4-9.7,9.4
			S320.5,85.9,320.5,80.7z M335.7,80.7L335.7,80.7c0-3.2-2.3-5.8-5.5-5.8s-5.5,2.5-5.5,5.7v0.1c0,3.1,2.3,5.7,5.5,5.7
			C333.4,86.4,335.7,83.8,335.7,80.7z"/>
		<path class="st1" d="M360.6,71.6h3.7l8.5,11.2V71.6h4v18.2h-3.4l-8.8-11.6v11.6h-4L360.6,71.6L360.6,71.6z"/>
	</g>
</g>
</svg>
