<?xml version="1.0" encoding="utf-8"?>
<!-- Generator: Adobe Illustrator 24.3.0, SVG Export Plug-In . SVG Version: 6.00 Build 0)  -->
<svg version="1.1" id="Layer_1" xmlns="http://www.w3.org/2000/svg" xmlns:xlink="http://www.w3.org/1999/xlink" x="0px" y="0px"
	 viewBox="0 0 384 58" style="enable-background:new 0 0 384 58;" xml:space="preserve">
<style type="text/css">
	.st0{fill:#243746;}
	.st1{fill:#FFFFFF;}
	.st2{fill:#A0CD5F;}
</style>
<g id="logo" transform="translate(-0.000000, 0.000000)">
	<rect id="Rectangle" class="st0" width="234" height="38.3"/>
	<g id="Group" transform="translate(10.813559, 6.881356)">
		<polygon id="Path" class="st1" points="0,0.7 4.9,0.7 4.9,23.1 0,23.1 		"/>
		<path id="Path_1_" class="st1" d="M10.3,0.7h4.9v8.9h8.9V0.7H29v22.4h-4.9v-9h-8.9v9h-4.9V0.7z"/>
		<path id="Path_2_" class="st1" d="M32.6,11.9L32.6,11.9c0-6.4,4.9-11.7,11.5-11.7c4,0,6.3,1.1,8.7,3.1l-3,3.8
			C48,5.6,46.5,4.8,44,4.8c-3.5,0-6.3,3.1-6.3,7v0.1c0,4.1,2.8,7.1,6.6,7.1c1.8,0,3.3-0.4,4.6-1.3v-3.2H44v-4.2h9.5v9.7
			c-2.3,1.9-5.4,3.6-9.4,3.6C37.3,23.5,32.6,18.6,32.6,11.9z"/>
		<path id="Shape" class="st1" d="M66.7,11.9L66.7,11.9c0-6.4,4.9-11.7,11.7-11.7c6.8,0,11.7,5.1,11.7,11.6v0.1
			c0,6.4-4.9,11.6-11.7,11.6S66.7,18.3,66.7,11.9z M85,11.9L85,11.9c0-3.9-2.8-7.1-6.6-7.1s-6.6,3.1-6.6,7v0.1
			c0,3.9,2.8,7.1,6.6,7.1C82.2,18.9,85,15.8,85,11.9z"/>
		<polygon id="Path_3_" class="st1" points="91.4,0.7 96.5,0.7 101.1,15.8 106,0.6 110.2,0.6 115.1,15.8 119.6,0.7 124.7,0.7 
			117.1,23.3 112.9,23.3 108,8.6 103,23.3 98.8,23.3 		"/>
		<polygon id="Path_4_" class="st1" points="128.3,0.7 132.7,0.7 143,14.5 143,0.7 147.8,0.7 147.8,23.1 143.7,23.1 133,8.8 
			133,23.1 128.3,23.1 		"/>
		<polygon id="Path_5_" class="st1" points="153.1,0.7 169.7,0.7 169.7,5.1 157.9,5.1 157.9,9.6 168.3,9.6 168.3,14 157.9,14 
			157.9,18.7 169.8,18.7 169.8,23.1 153.1,23.1 		"/>
		<path id="Shape_1_" class="st1" d="M174.2,0.7h10.1c2.8,0,5,0.8,6.4,2.3c1.2,1.3,1.9,3,1.9,5.1v0.1c0,3.6-1.9,5.9-4.7,7l5.4,8
			h-5.6l-4.7-7.2h-0.1h-3.7v7.2h-4.9V0.7H174.2z M183.9,11.6c2.4,0,3.7-1.3,3.7-3.1V8.3c0-2.1-1.4-3.2-3.8-3.2H179v6.5L183.9,11.6
			L183.9,11.6z"/>
		<path id="Path_6_" class="st1" d="M195.3,19.8l2.8-3.5c2,1.7,4,2.7,6.6,2.7c2,0,3.2-0.8,3.2-2.1v-0.1c0-1.3-0.8-1.9-4.4-2.8
			c-4.4-1.1-7.3-2.4-7.3-6.8V7.1c0-4.1,3.2-6.8,7.7-6.8c3.2,0,5.9,1,8.2,2.8l-2.5,3.7c-2-1.4-3.9-2.2-5.7-2.2
			c-1.8,0-2.8,0.8-2.8,1.9v0.1c0,1.5,0.9,1.9,4.7,3c4.4,1.2,7,2.8,7,6.7v0.1c0,4.5-3.3,7-8.1,7C201.4,23.4,198,22.2,195.3,19.8z"/>
	</g>
	<rect id="Rectangle_1_" y="38.3" class="st2" width="234" height="19.7"/>
	<g id="Group_1_" transform="translate(10.813559, 42.271186)">
		<path id="Shape_2_" class="st1" d="M5.2,0.2h2.2L12,11H9.5l-1-2.4H4L3,11H0.5L5.2,0.2z M7.7,6.6L6.3,3.1L4.9,6.6H7.7z"/>
		<path id="Path_7_" class="st1" d="M23,9.5l1.4-1.7c0.9,0.8,2,1.3,3.2,1.3c0.9,0,1.5-0.4,1.5-1V8.1c0-0.6-0.4-0.9-2.2-1.4
			c-2.2-0.5-3.6-1.2-3.6-3.3V3.4c0-1.9,1.6-3.2,3.8-3.2c1.6,0,2.9,0.5,4,1.4L30,3.2c-0.9-0.6-1.9-1.1-2.8-1.1s-1.4,0.5-1.4,1v0.1
			c0,0.7,0.5,0.9,2.3,1.4c2.2,0.6,3.4,1.4,3.4,3.2V8c0,2.1-1.7,3.3-4,3.3C25.9,11.2,24.3,10.7,23,9.5z"/>
		<path id="Path_8_" class="st1" d="M42.8,9.5l1.4-1.7c0.9,0.8,2,1.3,3.2,1.3c0.9,0,1.5-0.4,1.5-1V8.1c0-0.6-0.4-0.9-2.2-1.4
			c-2.2-0.5-3.6-1.2-3.6-3.3V3.4c0-1.9,1.6-3.2,3.8-3.2c1.6,0,2.9,0.5,4,1.4l-1.2,1.8c-0.9-0.6-1.9-1.1-2.8-1.1
			c-0.9,0-1.4,0.4-1.4,0.9v0.1c0,0.7,0.5,0.9,2.3,1.4c2.2,0.6,3.4,1.4,3.4,3.2v0.1c0,2.1-1.7,3.3-4,3.3
			C45.8,11.2,44.1,10.7,42.8,9.5z"/>
		<path id="Shape_3_" class="st1" d="M63.2,5.7L63.2,5.7c0-3.1,2.4-5.6,5.7-5.6c3.3,0,5.7,2.5,5.7,5.5v0.1c0,3.1-2.4,5.5-5.7,5.5
			S63.2,8.8,63.2,5.7z M72.2,5.7L72.2,5.7c0-1.9-1.4-3.4-3.3-3.4c-1.9,0-3.3,1.5-3.3,3.4v0.1c0,1.8,1.4,3.4,3.3,3.4
			C70.8,9.1,72.2,7.5,72.2,5.7z"/>
		<path id="Path_9_" class="st1" d="M86.5,5.7L86.5,5.7c0-3.1,2.3-5.6,5.6-5.6c2,0,3.3,0.6,4.3,1.7l-1.5,1.7
			c-0.8-0.8-1.7-1.2-2.8-1.2c-1.8,0-3.1,1.5-3.1,3.4v0.1c0,1.8,1.3,3.4,3.1,3.4c1.2,0,2-0.5,2.8-1.2l1.5,1.5
			c-1.1,1.2-2.4,1.9-4.4,1.9C88.8,11.3,86.5,8.8,86.5,5.7z"/>
		<polygon id="Path_10_" class="st1" points="108.6,0.4 110.9,0.4 110.9,11.1 108.6,11.1 		"/>
		<path id="Shape_4_" class="st1" d="M127.5,0.2h2.2l4.6,10.8h-2.5l-1-2.4h-4.6l-1,2.4h-2.4L127.5,0.2z M130,6.6l-1.4-3.5l-1.4,3.5
			H130z"/>
		<polygon id="Path_11_" class="st1" points="147.3,2.5 144.1,2.5 144.1,0.4 153,0.4 153,2.5 149.7,2.5 149.7,11.1 147.4,11.1 
			147.4,2.5 		"/>
		<polygon id="Path_12_" class="st1" points="165.1,0.4 167.5,0.4 167.5,11.1 165.1,11.1 		"/>
		<path id="Shape_5_" class="st1" d="M179.8,5.7L179.8,5.7c0-3.1,2.4-5.6,5.7-5.6s5.7,2.5,5.7,5.5v0.1c0,3.1-2.4,5.5-5.7,5.5
			S179.8,8.8,179.8,5.7z M188.8,5.7L188.8,5.7c0-1.9-1.4-3.4-3.3-3.4s-3.3,1.5-3.3,3.4v0.1c0,1.8,1.4,3.4,3.3,3.4
			S188.8,7.5,188.8,5.7z"/>
		<polygon id="Path_13_" class="st1" points="203.6,0.4 205.8,0.4 210.8,7 210.8,0.4 213.2,0.4 213.2,11.1 211.2,11.1 206,4.2 
			206,11.1 203.6,11.1 		"/>
	</g>
</g>
<path id="ONLINECOMMUNITY" d="M253,26c1.8,0,3.2-0.6,4.4-1.7s1.7-2.6,1.7-4.4l0,0V6.1c0-1.8-0.6-3.3-1.7-4.4S254.8,0,253,0
	s-3.2,0.6-4.3,1.7S247,4.3,247,6.1l0,0v13.8c0,1.8,0.6,3.3,1.7,4.4C249.8,25.4,251.2,26,253,26z M253,24c-1.2,0-2.1-0.4-2.9-1.2
	s-1.1-1.8-1.1-3l0,0V6.2c0-1.2,0.4-2.3,1.1-3.1S251.8,2,253,2c1.2,0,2.2,0.4,2.9,1.2S257,5,257,6.2l0,0v13.5c0,1.2-0.4,2.3-1.1,3
	S254.2,24,253,24z M265.6,25c0.2,0,0.4-0.1,0.4-0.4l0,0l0-19.9c0-0.1,0-0.1,0.1-0.1c0,0,0.1,0,0.1,0.1l0,0l7.7,20
	c0.1,0.2,0.2,0.3,0.4,0.3l0,0h1.4c0.2,0,0.4-0.1,0.4-0.4l0,0V0.4c0-0.2-0.1-0.4-0.4-0.4l0,0h-1.2c-0.2,0-0.4,0.1-0.4,0.4l0,0v19.8
	c0,0.1,0,0.1-0.1,0.1c0,0-0.1,0-0.1-0.1l0,0l-7.8-19.9c-0.1-0.2-0.2-0.3-0.4-0.3l0,0h-1.4c-0.2,0-0.4,0.1-0.4,0.4l0,0v24.3
	c0,0.2,0.1,0.4,0.4,0.4l0,0H265.6z M291.6,25c0.2,0,0.4-0.1,0.4-0.4l0,0v-1c0-0.2-0.1-0.4-0.4-0.4l0,0h-8.6c-0.1,0-0.1,0-0.1-0.1
	l0,0V0.4c0-0.2-0.1-0.4-0.4-0.4l0,0h-1.2c-0.2,0-0.4,0.1-0.4,0.4l0,0v24.3c0,0.2,0.1,0.4,0.4,0.4l0,0H291.6z M296.6,25
	c0.3,0,0.4-0.1,0.4-0.4l0,0V0.4c0-0.2-0.1-0.4-0.4-0.4l0,0h-1.2c-0.3,0-0.4,0.1-0.4,0.4l0,0v24.3c0,0.2,0.1,0.4,0.4,0.4l0,0H296.6z
	 M304.6,25c0.2,0,0.4-0.1,0.4-0.4l0,0l0-19.9c0-0.1,0-0.1,0.1-0.1c0,0,0.1,0,0.1,0.1l0,0l7.7,20c0.1,0.2,0.2,0.3,0.4,0.3l0,0h1.4
	c0.2,0,0.4-0.1,0.4-0.4l0,0V0.4c0-0.2-0.1-0.4-0.4-0.4l0,0h-1.2c-0.2,0-0.4,0.1-0.4,0.4l0,0v19.8c0,0.1,0,0.1-0.1,0.1
	c0,0-0.1,0-0.1-0.1l0,0l-7.8-19.9c-0.1-0.2-0.2-0.3-0.4-0.3l0,0h-1.4c-0.2,0-0.4,0.1-0.4,0.4l0,0v24.3c0,0.2,0.1,0.4,0.4,0.4l0,0
	H304.6z M330.6,25c0.2,0,0.4-0.1,0.4-0.4l0,0v-1c0-0.2-0.1-0.4-0.4-0.4l0,0h-8.6c-0.1,0-0.1,0-0.1-0.1l0,0v-9.7c0-0.1,0-0.1,0.1-0.1
	l0,0h5.5c0.2,0,0.4-0.1,0.4-0.4l0,0v-1c0-0.2-0.1-0.4-0.4-0.4l0,0h-5.5c-0.1,0-0.1,0-0.1-0.1l0,0V1.8c0-0.1,0-0.1,0.1-0.1l0,0h8.6
	c0.2,0,0.4-0.1,0.4-0.4l0,0v-1c0-0.2-0.1-0.4-0.4-0.4l0,0h-10.3c-0.2,0-0.4,0.1-0.4,0.4l0,0v24.3c0,0.2,0.1,0.4,0.4,0.4l0,0H330.6z
	 M253,58c1.8,0,3.3-0.6,4.4-1.7c1.1-1.1,1.6-2.6,1.6-4.4l0,0v-0.6c0-0.2-0.1-0.4-0.4-0.4l0,0l-1.2-0.1c-0.2,0-0.4,0.1-0.4,0.4l0,0
	v0.8c0,1.3-0.4,2.3-1.1,3.1c-0.8,0.8-1.7,1.2-2.9,1.2c-1.2,0-2.2-0.4-2.9-1.2c-0.7-0.8-1.1-1.8-1.1-3.1l0,0V37.9
	c0-1.3,0.4-2.3,1.1-3c0.7-0.8,1.7-1.1,2.9-1.1c1.2,0,2.2,0.4,3,1.1c0.7,0.8,1.1,1.8,1.1,3l0,0v0.9c0,0.2,0.1,0.4,0.4,0.4l0,0
	l1.2-0.1c0.1,0,0.2,0,0.3-0.1c0.1-0.1,0.1-0.2,0.1-0.3l0,0V38c0-1.8-0.5-3.3-1.6-4.4c-1.1-1.1-2.6-1.6-4.4-1.6
	c-1.8,0-3.2,0.5-4.3,1.6S247,36.2,247,38l0,0v13.9c0,1.8,0.5,3.3,1.6,4.4S251.2,58,253,58z M269,58c1.8,0,3.2-0.6,4.4-1.7
	s1.7-2.6,1.7-4.4l0,0V38.1c0-1.8-0.6-3.3-1.7-4.4S270.8,32,269,32c-1.8,0-3.2,0.6-4.3,1.7s-1.6,2.6-1.6,4.4l0,0v13.8
	c0,1.8,0.6,3.3,1.7,4.4S267.2,58,269,58z M269,56c-1.2,0-2.1-0.4-2.9-1.2c-0.7-0.8-1.1-1.8-1.1-3l0,0V38.2c0-1.2,0.4-2.3,1.1-3.1
	s1.7-1.2,2.9-1.2c1.2,0,2.2,0.4,2.9,1.2s1.1,1.8,1.1,3.1l0,0v13.5c0,1.2-0.4,2.3-1.1,3C271.1,55.6,270.2,56,269,56z M281.6,58
	c0.2,0,0.4-0.1,0.4-0.4l0,0V37.5c0-0.1,0-0.1,0.1-0.1c0,0,0.1,0,0.1,0.1l0,0l4,8.7c0.1,0.2,0.2,0.2,0.4,0.2c0.2,0,0.3-0.1,0.4-0.3
	l0,0l4-8.7c0,0,0.1-0.1,0.1-0.1c0,0,0.1,0,0.1,0.1l0,0v20.2c0,0.2,0.1,0.4,0.4,0.4l0,0h1.2c0.2,0,0.4-0.1,0.4-0.4l0,0V33.4
	c0-0.2-0.1-0.4-0.4-0.4l0,0h-1.2c-0.2,0-0.3,0.1-0.4,0.2l0,0l-4.4,9.4c0,0-0.1,0.1-0.1,0.1c0,0-0.1,0-0.1-0.1l0,0l-4.4-9.4
	c-0.1-0.2-0.2-0.2-0.4-0.2l0,0h-1.2c-0.2,0-0.4,0.1-0.4,0.4l0,0v24.3c0,0.2,0.1,0.4,0.4,0.4l0,0H281.6z M299.6,58
	c0.2,0,0.4-0.1,0.4-0.4l0,0V37.5c0-0.1,0-0.1,0.1-0.1c0,0,0.1,0,0.1,0.1l0,0l4,8.7c0.1,0.2,0.2,0.2,0.4,0.2c0.2,0,0.3-0.1,0.4-0.3
	l0,0l4-8.7c0,0,0.1-0.1,0.1-0.1c0,0,0.1,0,0.1,0.1l0,0v20.2c0,0.2,0.1,0.4,0.4,0.4l0,0h1.2c0.2,0,0.4-0.1,0.4-0.4l0,0V33.4
	c0-0.2-0.1-0.4-0.4-0.4l0,0h-1.2c-0.2,0-0.3,0.1-0.4,0.2l0,0l-4.4,9.4c0,0-0.1,0.1-0.1,0.1c0,0-0.1,0-0.1-0.1l0,0l-4.4-9.4
	c-0.1-0.2-0.2-0.2-0.4-0.2l0,0h-1.2c-0.2,0-0.4,0.1-0.4,0.4l0,0v24.3c0,0.2,0.1,0.4,0.4,0.4l0,0H299.6z M322,58
	c1.8,0,3.2-0.6,4.4-1.9c1.1-1.3,1.7-3,1.7-5l0,0V32.4c0-0.2-0.1-0.4-0.4-0.4l0,0h-1.2c-0.2,0-0.4,0.1-0.4,0.4l0,0v18.9
	c0,1.5-0.4,2.7-1.1,3.6s-1.8,1.4-3,1.4c-1.2,0-2.2-0.5-2.9-1.4c-0.7-0.9-1.1-2.1-1.1-3.6l0,0V32.4c0-0.2-0.1-0.4-0.4-0.4l0,0h-1.2
	c-0.2,0-0.4,0.1-0.4,0.4l0,0v18.7c0,2.1,0.5,3.8,1.6,5S320.2,58,322,58z M334.6,58c0.2,0,0.4-0.1,0.4-0.4l0,0l0-19.9
	c0-0.1,0-0.1,0.1-0.1c0,0,0.1,0,0.1,0.1l0,0l7.7,20c0.1,0.2,0.2,0.3,0.4,0.3l0,0h1.4c0.2,0,0.4-0.1,0.4-0.4l0,0V33.4
	c0-0.2-0.1-0.4-0.4-0.4l0,0h-1.2c-0.2,0-0.4,0.1-0.4,0.4l0,0v19.8c0,0.1,0,0.1-0.1,0.1c0,0-0.1,0-0.1-0.1l0,0l-7.8-19.9
	c-0.1-0.2-0.2-0.3-0.4-0.3l0,0h-1.4c-0.2,0-0.4,0.1-0.4,0.4l0,0v24.3c0,0.2,0.1,0.4,0.4,0.4l0,0H334.6z M352.6,58
	c0.3,0,0.4-0.1,0.4-0.4l0,0V33.4c0-0.2-0.1-0.4-0.4-0.4l0,0h-1.2c-0.3,0-0.4,0.1-0.4,0.4l0,0v24.3c0,0.2,0.1,0.4,0.4,0.4l0,0H352.6z
	 M363.4,58c0.2,0,0.4-0.1,0.4-0.4l0,0V34.8c0-0.1,0-0.1,0.1-0.1l0,0h4.7c0.2,0,0.4-0.1,0.4-0.4l0,0v-1c0-0.2-0.1-0.4-0.4-0.4l0,0
	h-11.3c-0.2,0-0.4,0.1-0.4,0.4l0,0v1c0,0.2,0.1,0.4,0.4,0.4l0,0h4.4c0.1,0,0.1,0,0.1,0.1l0,0v22.8c0,0.2,0.1,0.4,0.4,0.4l0,0H363.4z
	 M378.6,58c0.2,0,0.4-0.1,0.4-0.4l0,0V46.6c0-0.1,0-0.2,0-0.2l0,0l5-13c0-0.1,0-0.2,0-0.3c-0.1-0.1-0.2-0.1-0.3-0.1l0,0h-1.3
	c-0.2,0-0.4,0.1-0.4,0.3l0,0l-3.9,10.9c0,0-0.1,0.1-0.1,0.1s-0.1,0-0.1-0.1l0,0L374,33.3c-0.1-0.2-0.2-0.3-0.4-0.3l0,0h-1.3
	c-0.2,0-0.3,0.1-0.3,0.3l0,0l0,0.1l5,13c0,0,0,0.1,0,0.2l0,0v11.1c0,0.2,0.1,0.4,0.4,0.4l0,0H378.6z"/>
</svg>
